<svg xmlns="http://www.w3.org/2000/svg" viewBox="0 0 24 24"><g id="Layer_2"><g id="Art"><path d="M20,2H4A1,1,0,0,0,3,3V15a1,1,0,0,0,1,1H7l0,3v2a1,1,0,0,0,1,1h8a1,1,0,0,0,1-1V16h3a1,1,0,0,0,1-1V3A1,1,0,0,0,20,2ZM9,20l-.08-8H15v8Zm10-6H17V12h.21a1,1,0,0,0,0-2H7a1,1,0,0,0-1,1,1,1,0,0,0,.91,1l0,2H5V4H19Z"/><path d="M12.11,8H17a1,1,0,0,0,0-2H12.11a1,1,0,0,0,0,2Z"/><path d="M7,8H8A1,1,0,0,0,8,6H7A1,1,0,0,0,7,8Z"/><path d="M11,16h1.83a1,1,0,0,0,0-2H11a1,1,0,0,0,0,2Z"/><path d="M13,17H11a1,1,0,0,0,0,2h2a1,1,0,0,0,0-2Z"/><rect width="24" height="24" fill="none"/></g></g></svg>