<svg xmlns="http://www.w3.org/2000/svg" viewBox="0 0 24 24"><g id="Layer_2"><g id="Art"><path d="M13.4,3a9,9,0,0,0-9.26,9H2.35a.49.49,0,0,0-.35.85l2.79,2.8a.5.5,0,0,0,.71,0l2.79-2.8A.5.5,0,0,0,7.94,12H6.14a7,7,0,0,1,7.1-7,7.09,7.09,0,0,1,6.9,6.9,7,7,0,0,1-7,7.1,6.9,6.9,0,0,1-4.28-1.48,1,1,0,0,0-1.32.08,1,1,0,0,0,.08,1.5,9,9,0,0,0,14.52-7.36A9.11,9.11,0,0,0,13.4,3Zm-.51,5a.76.76,0,0,0-.75.75v3.68a1,1,0,0,0,.49.86l3.12,1.85a.75.75,0,0,0,.77-1.29l-2.88-1.71V8.74A.75.75,0,0,0,12.89,8Z"/><rect width="24" height="24" fill="none"/></g></g></svg>