<svg width="3.7571mm" height="2.249mm" version="1.1" viewBox="0 0 3.7571 2.249" xmlns="http://www.w3.org/2000/svg">
 <g>
  <path d="m1.637e-6 2.2225v-2.2225h0.21167v0.21167l0.44979-0.21167v0.21167l0.44979-0.21167v2.249h-0.21167v-1.9315l-0.21167 0.10583v1.561h-0.21167v-1.6669l-0.21167 0.10583v1.7992h-0.26458"/>
  <path d="m1.3229 3.294e-6v2.2225h0.66146v-2.2225h-0.23812v2.0108h-0.21167v-2.0108h-0.21167"/>
  <path d="m2.249 1.4288v0.76729h0.66146v-1.1112l-0.44979-0.21167v-0.66146h0.21167v0.44979l0.21167 0.10583v-0.76729h-0.66146v1.0319l0.44979 0.21167v0.74083h-0.21167v-0.44979z"/>
  <path transform="scale(.26458)" d="m11.699 0v8.4004h2.5v-2.9004l-0.89844 0.30078v1.6992h-0.80078v-2.5l1.6992-0.80078v-4.1992h-2.5zm0.90039 0.90039h0.80078v2.7988l-0.80078 0.40039v-3.1992z"/>
 </g>
</svg>
