<?xml version="1.0" encoding="utf-8"?>
<!-- Generator: Adobe Illustrator 25.1.0, SVG Export Plug-In . SVG Version: 6.00 Build 0)  -->
<svg version="1.1" id="Layer_1" xmlns="http://www.w3.org/2000/svg" xmlns:xlink="http://www.w3.org/1999/xlink" x="0px" y="0px"
	 viewBox="0 0 405 230.7" style="enable-background:new 0 0 405 230.7;" xml:space="preserve">
<style type="text/css">
	.st0{fill:#35B799;}
	.st1{fill:#F3EDED;}
	.st2{fill:#FBB32F;}
	.st3{fill:#ED75A9;}
	.st4{fill:#F2782E;}
	.st5{enable-background:new    ;}
	.st6{fill:#707070;}
</style>
<g>
	<g>
		<path id="Path_51" class="st0" d="M224,115.3c0,2.1-0.4,4.2-1.3,6.2c-0.8,1.9-2,3.6-3.4,5.1c-1.5,1.5-3.2,2.6-5.1,3.4
			c-2,0.8-4.1,1.3-6.2,1.3c-2.1,0-4.2-0.4-6.2-1.3c-1.9-0.8-3.6-2-5.1-3.4c-1.5-1.5-2.6-3.2-3.4-5.1c-0.7-2-1.1-4.1-1.1-6.2
			c0-2.1,0.4-4.2,1.3-6.2c0.8-1.9,2-3.6,3.4-5.1c1.5-1.5,3.2-2.6,5.1-3.4c2-0.8,4.1-1.3,6.2-1.3c2.1,0,4.2,0.4,6.2,1.3
			c1.9,0.8,3.6,2,5.1,3.4c1.5,1.5,2.6,3.2,3.4,5.1C223.7,111.1,224,113.2,224,115.3z"/>
		<path id="Path_52" class="st1" d="M200.8,115.3L200.8,115.3c-0.1-4,3.1-7.3,7.1-7.3c0.1,0,0.2,0,0.3,0c2-0.1,4,0.6,5.5,1.9l-2,2.4
			c-1-0.9-2.3-1.4-3.7-1.4c-2.3,0.1-4.1,2-4.1,4.4v0.1c-0.1,2.3,1.7,4.3,4,4.5c0.1,0,0.2,0,0.3,0c1,0,2.1-0.3,2.9-0.9v-2h-3.1v-2.7
			h6.1v6.1c-1.7,1.4-3.8,2.2-6,2.2C203.8,122.6,200.8,119.5,200.8,115.3z"/>
		<path id="Path_53" class="st2" d="M250.3,115.3c0,4.2-1.7,8.3-4.7,11.2c-3,3-7,4.7-11.2,4.7c-8.7,0-15.9-7-15.9-15.8
			c0-4.2,1.7-8.3,4.7-11.3c3-3,7-4.7,11.2-4.7C243.2,99.5,250.3,106.6,250.3,115.3L250.3,115.3z"/>
		<path id="Path_54" class="st1" d="M228.8,120.3l1.8-2.2c1.2,1,2.7,1.6,4.2,1.7c1.3,0,2.1-0.5,2.1-1.3v0.1c0-0.8-0.5-1.2-2.9-1.8
			c-2.9-0.7-4.7-1.5-4.7-4.3v-0.1c0-2.6,2.1-4.2,5-4.2c1.9,0,3.8,0.6,5.3,1.8l-1.6,2.3c-1.1-0.8-2.3-1.3-3.7-1.3
			c-1.2,0-1.8,0.5-1.8,1.2v0.1c0,1,0.6,1.2,3,1.8c2.9,0.7,4.5,1.8,4.5,4.2v0.1c0,2.8-2.1,4.4-5.2,4.4
			C232.6,122.6,230.4,121.8,228.8,120.3z"/>
		<path id="Path_55" class="st3" d="M271,115.3c0-2.1,0.4-4.2,1.3-6.2c0.8-1.9,2-3.6,3.4-5.1c1.5-1.5,3.2-2.6,5.1-3.4
			c2-0.8,4.1-1.3,6.2-1.3c2.1,0,4.2,0.4,6.2,1.3c1.9,0.8,3.6,2,5.1,3.4c1.5,1.5,2.6,3.2,3.4,5.1c0.8,2,1.3,4.1,1.3,6.2
			c0,2.1-0.4,4.2-1.3,6.2c-0.8,1.9-2,3.6-3.4,5.1c-1.5,1.5-3.2,2.6-5.1,3.4c-2,0.8-4.1,1.3-6.2,1.3c-2.1,0-4.2-0.4-6.2-1.3
			c-1.9-0.8-3.6-2-5.1-3.4c-1.5-1.5-2.6-3.2-3.4-5.1C271.4,119.6,271,117.5,271,115.3z"/>
		<path id="Path_56" class="st1" d="M282.1,108.4h5.8c3.4,0,5.4,2,5.4,4.9v0.1c0,3.3-2.6,5-5.7,5h-2.4v4.2h-3.1V108.4z M287.7,115.5
			c1.2,0.2,2.3-0.7,2.4-1.9c0-0.1,0-0.2,0-0.3l0,0c0-1.4-1-2.1-2.6-2.1h-2.4v4.3L287.7,115.5L287.7,115.5z"/>
		<path id="Path_57" class="st4" d="M244.8,115.3c0-8.8,7.1-15.9,15.9-15.9s15.9,7.1,15.9,15.9s-7.1,15.9-15.9,15.9
			C251.9,131.3,244.8,124.1,244.8,115.3z"/>
		<path id="Path_58" class="st1" d="M263.5,120.5c-1.1,0.9-2.5,1.5-4,1.5c-2.6,0-4.5-1.5-4.5-3.9l0,0c0-1.7,1-3.2,2.6-3.7
			c-0.6-0.8-0.9-1.7-1-2.7l0,0c0-1.8,1.5-3.6,4.2-3.6c2.3,0,3.8,1.5,3.8,3.4l0,0c0,1.8-1.2,2.9-2.9,3.5l1.8,1.8
			c0.5-0.7,0.9-1.5,1.3-2.3l2.1,1.2c-0.5,1-1.1,2-1.8,2.9l2,2l-2.1,1.5L263.5,120.5z M261.7,118.8l-2.6-2.6c-0.7,0.3-1.2,1-1.3,1.8
			l0,0c0,1,0.8,1.6,1.9,1.6C260.5,119.6,261.2,119.3,261.7,118.8L261.7,118.8z M261.9,111.6L261.9,111.6c0-0.7-0.5-1.2-1.1-1.3
			c-0.1,0-0.1,0-0.2,0c-0.7,0-1.3,0.5-1.3,1.2c0,0.1,0,0.1,0,0.2l0,0c0,0.6,0.3,1.2,0.8,1.7C261.3,113,261.9,112.6,261.9,111.6
			L261.9,111.6z"/>
	</g>
	<g id="jr-logo" transform="translate(1335 366)">
		<path id="Path_253" d="M-1224.1-249.2v6.5c0,1.3-0.1,2.6-0.3,3.9c-0.3,1.9-1.5,3.5-3.1,4.5l-2.2,1.3c-0.7,0.5-1.8,0.4-2.3-0.4
			c-0.1-0.1-0.2-0.3-0.2-0.4c-0.3-0.6-0.6-1.2-1.1-1.9c-0.5-0.6-0.5-1.6,0.2-2.1c0.1-0.1,0.3-0.2,0.4-0.3c1.5-0.7,2.3-2.3,2.2-3.9
			v-13.9c0-1.5,0.5-2.1,2.1-2.1h2.4c1.4,0,2,0.6,2,2C-1224.1-253.8-1224.1-251.6-1224.1-249.2L-1224.1-249.2z"/>
		<path id="Path_254" d="M-1214.5-255.8c0.2-0.3,0.4-0.4,0.6-0.8c1.9-2.2,4.5-2.4,7.2-1.5c0.6,0.3,0.9,0.6,0.8,1.4
			c-0.2,1-0.4,1.9-0.8,2.9c0,0.1-0.1,0.3-0.3,0.6c-0.2,0.4-0.7,0.6-1.2,0.4c-0.4-0.2-0.9-0.3-1.3-0.3c-2.4-0.4-4,0.9-4,3.4v8.5
			c-0.1,0.7-0.7,1.2-1.3,1.4h-3.5c-0.8,0-1.4-0.6-1.5-1.4v-15.7c0-0.7,0.6-1.3,1.3-1.4c0,0,0,0,0,0h2.6c0.8,0,1.2,0.6,1.3,1.4
			C-1214.7-256.5-1214.7-256.1-1214.5-255.8z"/>
		<path id="Path_255" d="M-1231.2-264.8c0-2.1,1.8-3.9,3.9-3.9c2.1,0,3.7,1.7,3.7,3.8c0,2.1-1.7,3.7-3.8,3.7c0,0-0.1,0-0.1,0
			c-2,0.1-3.7-1.4-3.7-3.4C-1231.2-264.6-1231.2-264.7-1231.2-264.8z"/>
		<path id="Path_256" d="M-1209.3-243c0-2.1,1.8-3.8,3.9-3.7c2.1,0,3.8,1.8,3.7,3.9c0,2.1-1.8,3.8-3.9,3.7
			C-1207.6-239.3-1209.2-241-1209.3-243z"/>
	</g>
	<g class="st5">
		<path class="st6" d="M160.4,116.9c0,2.1-1.5,3.5-3.4,3.5c-1.1,0-2.1-0.5-2.6-1.4v1.4h-0.9v-9.6h0.9v4.1c0.6-0.9,1.5-1.4,2.6-1.4
			C159,113.4,160.4,114.8,160.4,116.9z M159.5,116.9c0-1.6-1.1-2.7-2.5-2.7c-1.5,0-2.5,1.1-2.5,2.7c0,1.6,1.1,2.7,2.5,2.7
			C158.4,119.6,159.5,118.5,159.5,116.9z"/>
		<path class="st6" d="M167.9,113.5l-3.4,7.7c-0.6,1.3-1.3,1.8-2.3,1.8c-0.6,0-1.2-0.2-1.7-0.6l0.4-0.7c0.3,0.3,0.8,0.5,1.2,0.5
			c0.6,0,1-0.3,1.4-1.1l0.3-0.7l-3.1-6.8h1l2.6,5.8l2.6-5.8H167.9z"/>
		<path class="st6" d="M168.7,114.1c0-0.4,0.3-0.7,0.7-0.7s0.7,0.3,0.7,0.7c0,0.4-0.3,0.7-0.7,0.7S168.7,114.5,168.7,114.1z
			 M168.7,119.7c0-0.4,0.3-0.7,0.7-0.7s0.7,0.3,0.7,0.7c0,0.4-0.3,0.7-0.7,0.7S168.7,120.1,168.7,119.7z"/>
	</g>
</g>
</svg>
